<svg width="70" height="164" viewBox="0 0 70 164" fill="none" xmlns="http://www.w3.org/2000/svg">
<path d="M43.1129 139.737L43.1128 139.735C42.6342 131.701 43.5192 127.256 44.4866 124.841C44.9691 123.637 45.4704 122.942 45.83 122.557C45.8842 122.499 45.9353 122.448 45.9828 122.403C46.0678 122.572 46.1709 122.784 46.2881 123.038C46.6382 123.798 47.1143 124.938 47.6106 126.444C48.603 129.455 49.676 133.929 49.9827 139.757C50.066 141.408 49.8483 144.007 49.4847 146.522C49.1201 149.044 48.6193 151.41 48.1598 152.608L48.0297 152.947L48.312 153.176C52.9772 156.952 59.9932 161.64 67.2673 162.848C65.6529 163.447 64.6774 163.532 64.2805 163.491C61.6509 163.195 58.6908 161.762 55.8041 159.856C52.9278 157.957 50.1754 155.623 47.9692 153.588L47.7075 153.346L47.3938 153.515C46.1884 154.162 41.9052 155.468 30.7555 150.543L30.7552 150.543C29.2259 149.869 26.3328 147.863 23.9217 145.79C22.7203 144.756 21.6642 143.728 20.9704 142.865C20.6217 142.43 20.3828 142.06 20.2572 141.768C20.1687 141.562 20.1574 141.446 20.1611 141.388C20.2094 141.37 20.2864 141.349 20.3996 141.331C20.6674 141.287 21.0535 141.271 21.5444 141.286C22.5204 141.316 23.8253 141.467 25.2405 141.701C28.079 142.171 31.2698 142.962 33.0345 143.728L33.0354 143.729C39.2662 146.418 43.3091 149.513 45.5756 151.576L46.3631 150.991C45.5895 149.376 44.8083 147.155 44.2027 145.027C43.5949 142.891 43.1784 140.899 43.1129 139.737ZM20.1168 141.408C20.1149 141.41 20.1138 141.41 20.1138 141.41C20.1138 141.41 20.1147 141.41 20.1168 141.408ZM32.2355 135.665C32.0195 135.956 31.8611 136.115 31.7668 136.179C31.7642 136.18 31.7604 136.182 31.7555 136.185C31.737 136.194 31.7018 136.211 31.6488 136.231C31.5432 136.272 31.3654 136.327 31.1068 136.369C30.5903 136.451 29.7423 136.477 28.4925 136.201C25.9868 135.648 21.8813 133.884 15.6445 128.963C14.3071 127.89 11.9515 125.186 10.0881 122.558C9.15886 121.247 8.37106 119.981 7.89994 118.972C7.66299 118.464 7.51909 118.047 7.46764 117.737C7.44209 117.583 7.443 117.476 7.45443 117.407C7.45633 117.396 7.45844 117.386 7.46057 117.378C7.51353 117.375 7.59301 117.376 7.70396 117.389C7.97928 117.422 8.36338 117.513 8.84148 117.663C9.79215 117.961 11.0355 118.463 12.3661 119.075C15.0343 120.302 17.9731 121.932 19.5247 123.15L19.526 123.151C24.9423 127.375 28.1714 131.423 29.8979 133.996L30.8032 133.619C30.4499 131.869 30.2368 129.563 30.1686 127.393C30.1002 125.215 30.1793 123.224 30.3921 122.094C31.8789 114.336 33.8334 110.365 35.371 108.345C36.1378 107.338 36.7987 106.819 37.2446 106.553C37.3216 106.508 37.3924 106.469 37.4565 106.437C37.5008 106.625 37.5536 106.864 37.6103 107.152C37.7711 107.969 37.9638 109.18 38.0867 110.744C38.3326 113.873 38.2998 118.413 37.1758 124.033C36.8086 125.834 35.7616 128.688 34.6244 131.219C34.0576 132.481 33.4748 133.647 32.9524 134.549C32.691 135.001 32.4489 135.378 32.2355 135.665ZM7.39971 117.386C7.39972 117.386 7.40103 117.386 7.40384 117.385C7.40115 117.386 7.39969 117.386 7.39971 117.386ZM22.2763 101.844L22.2767 101.843C25.6247 94.8903 28.5101 91.6611 30.5091 90.168C31.506 89.4234 32.2808 89.1116 32.784 88.9818C32.8812 88.9567 32.9687 88.9384 33.0461 88.9249C33.043 89.1179 33.0355 89.3645 33.0194 89.6613C32.9747 90.4811 32.8641 91.6844 32.5992 93.2034C32.0697 96.2409 30.9236 100.541 28.4557 105.562C27.6573 107.175 25.9094 109.622 24.1568 111.72C23.2836 112.766 22.4203 113.712 21.6876 114.414C21.3207 114.766 20.9937 115.049 20.7197 115.251C20.4308 115.465 20.2506 115.551 20.1692 115.569C20.11 115.581 19.8442 115.623 19.3626 115.551C18.8076 115.469 17.9523 115.232 16.7899 114.603C14.4604 113.343 10.9121 110.516 6.10926 104.243C5.05155 102.855 3.39655 99.6328 2.20815 96.6191C1.61555 95.1163 1.15121 93.6956 0.935324 92.6063C0.826669 92.0581 0.787386 91.6245 0.812347 91.3186C0.826774 91.1417 0.858315 91.0492 0.88147 91.003C0.93817 91.0153 1.01998 91.0404 1.12992 91.0854C1.39708 91.1948 1.7554 91.3901 2.18991 91.6655C3.05435 92.2135 4.15461 93.0359 5.31301 93.9852C7.63515 95.8882 10.1264 98.2481 11.3638 99.8363C15.6589 105.393 17.8677 110.156 18.9163 113.065L19.8863 112.915C19.9534 111.168 20.2995 108.915 20.7597 106.827C21.2217 104.731 21.7874 102.854 22.2763 101.844ZM0.814207 90.9938C0.814141 90.9937 0.815527 90.9936 0.818533 90.9937C0.815769 90.9939 0.814272 90.9938 0.814207 90.9938ZM14.4928 92.6243C14.1667 92.7499 13.9413 92.8035 13.8089 92.8106H13.8088H13.8087H13.8086H13.8085H13.8084H13.8083H13.8082H13.8081H13.808H13.8079H13.8078H13.8077H13.8076H13.8075H13.8074H13.8073H13.8072H13.807H13.8069H13.8068H13.8067H13.8066H13.8065H13.8064H13.8063H13.8062H13.8061H13.8059H13.8058H13.8057H13.8056H13.8055H13.8054H13.8053H13.8051H13.805H13.8049H13.8048H13.8047H13.8045H13.8044H13.8043H13.8042H13.8041H13.8039H13.8038H13.8037H13.8036H13.8034H13.8033H13.8032H13.8031H13.8029H13.8028H13.8027H13.8025H13.8024H13.8023H13.8021H13.802H13.8019H13.8017H13.8016H13.8015H13.8013H13.8012H13.8011H13.8009H13.8008H13.8007H13.8005H13.8004H13.8002H13.8001H13.7999H13.7998H13.7997H13.7995H13.7994H13.7992H13.7991H13.7989H13.7988H13.7986H13.7985H13.7983H13.7982H13.798H13.7979H13.7977H13.7976H13.7974H13.7973H13.7971H13.797H13.7968H13.7966H13.7965H13.7963H13.7962H13.796H13.7958H13.7957H13.7955H13.7954H13.7952H13.795H13.7949H13.7947H13.7945H13.7944H13.7942H13.794H13.7939H13.7937H13.7935H13.7934H13.7932H13.793H13.7928H13.7927H13.7925H13.7923H13.7921H13.792H13.7918H13.7916H13.7914H13.7912H13.7911H13.7909H13.7907H13.7905H13.7903H13.7901H13.79H13.7898H13.7896H13.7894H13.7892H13.789H13.7888H13.7886H13.7884H13.7882H13.7881H13.7879H13.7877H13.7875H13.7873H13.7871H13.7869H13.7867H13.7865H13.7863H13.7861H13.7859H13.7857H13.7855H13.7853H13.7851H13.7849H13.7847H13.7845H13.7843H13.7841H13.7839H13.7837H13.7835H13.7833H13.7831H13.783H13.7828H13.7826H13.7824H13.7822H13.782H13.7818H13.7817H13.7815H13.7813H13.7811H13.7809H13.7807H13.7806H13.7804H13.7802H13.78H13.7798H13.7797H13.7795H13.7793H13.7791H13.779H13.7788H13.7786H13.7785H13.7783H13.7781H13.7779H13.7778H13.7776H13.7774H13.7773H13.7771H13.7769H13.7768H13.7766H13.7764H13.7763H13.7761H13.776H13.7758H13.7756H13.7755H13.7753H13.7751H13.775H13.7748H13.7747H13.7745H13.7744H13.7742H13.774H13.7739H13.7737H13.7736H13.7734H13.7733H13.7731H13.773H13.7728H13.7727H13.7725H13.7724H13.7722H13.7721H13.7719H13.7718H13.7716H13.7715H13.7714H13.7712H13.7711H13.7709H13.7708H13.7706H13.7705H13.7703H13.7702H13.7701H13.7699H13.7698H13.7696H13.7695H13.7694H13.7692H13.7691H13.769H13.7688H13.7687H13.7685H13.7684H13.7683H13.7681H13.768H13.7679H13.7677H13.7676H13.7675H13.7674H13.7672H13.7671H13.767H13.7668H13.7667H13.7666H13.7664H13.7663H13.7662H13.7661H13.7659H13.7658H13.7657H13.7656H13.7654H13.7653H13.7652H13.7651H13.7649H13.7648H13.7647H13.7646H13.7644H13.7643H13.7642H13.7641H13.764H13.7638H13.7637H13.7636H13.7635H13.7634H13.7632H13.7631H13.763H13.7629H13.7628H13.7627H13.7625H13.7624H13.7623H13.7622H13.7621H13.762H13.7618H13.7617H13.7616H13.7615H13.7614H13.7613H13.7612H13.761H13.7609H13.7608H13.7607H13.7606H13.7605H13.7604H13.7603H13.7601H13.76H13.7599H13.7598H13.7597H13.7596H13.7595H13.7594H13.7593H13.7592H13.7591H13.7589H13.7588H13.7587H13.7586H13.7585H13.7584H13.7583H13.7582H13.7581H13.758H13.7579H13.7578H13.7577H13.7576H13.7575H13.7573H13.7572H13.7571H13.757H13.7569H13.7568H13.7567H13.7566H13.7565H13.7564H13.7563H13.7562H13.7561H13.756H13.7559H13.7558H13.7557H13.7556C13.144 92.7089 8.63799 91.5808 2.76807 78.1638L2.76785 78.1633C2.05704 76.5433 1.21418 73.0242 0.782548 69.8361C0.567274 68.246 0.45908 66.7716 0.514237 65.6818C0.54202 65.1329 0.609936 64.7151 0.708273 64.4373C0.762323 64.2847 0.811569 64.2104 0.842938 64.175C0.898712 64.2033 0.977828 64.2527 1.08154 64.3314C1.31922 64.512 1.62485 64.7993 1.98479 65.1823C2.7012 65.9448 3.58272 67.0327 4.48966 68.2554C6.30829 70.7074 8.18072 73.636 9.00004 75.4753L9.00049 75.4763C11.7947 81.7122 12.7794 86.6788 13.1522 89.7966L14.1273 89.8818C14.614 88.2707 15.4506 86.3326 16.3442 84.5879C17.241 82.837 18.1725 81.3254 18.8378 80.546C23.6499 75.0176 27.1647 72.8335 29.4268 72.0139C30.5553 71.6051 31.3727 71.5353 31.8888 71.558C32.0026 71.563 32.1023 71.5726 32.188 71.5841C32.1413 71.7656 32.0775 71.9983 31.9931 72.2776C31.7652 73.0322 31.3868 74.1271 30.7882 75.4723C29.5912 78.1625 27.5131 81.8548 23.9943 85.8325L23.9938 85.8332C22.8846 87.0914 20.7182 88.8329 18.5944 90.2773C17.5372 90.9963 16.5046 91.632 15.6364 92.0899C15.202 92.3191 14.8158 92.4999 14.4928 92.6243ZM0.786411 64.1508C0.783753 64.1503 0.78236 64.1498 0.782326 64.1498C0.782292 64.1497 0.783621 64.1499 0.786411 64.1508ZM13.8901 70.0652C13.8301 70.0675 13.7791 70.0672 13.7363 70.0651L13.4803 69.9221C12.5079 69.3787 8.7372 66.4717 6.37607 53.0931C6.07874 51.3571 6.1075 47.7874 6.45769 44.6442C6.63242 43.0759 6.88369 41.6479 7.20148 40.6297C7.36162 40.1167 7.52861 39.7412 7.69014 39.5072C7.76998 39.3915 7.83486 39.3305 7.87776 39.3016C7.88171 39.2989 7.88536 39.2966 7.8887 39.2946C7.93786 39.3349 8.00774 39.4053 8.09741 39.516C8.28704 39.7503 8.5174 40.1051 8.77774 40.5661C9.29593 41.4837 9.89734 42.758 10.4906 44.1685C11.6804 46.9975 12.8055 50.2981 13.1564 52.2699L13.1571 52.2737C14.3154 58.508 14.1778 63.2688 13.8389 66.3526L14.771 66.6536C15.563 65.2548 16.6384 63.7043 17.7085 62.3541C18.7844 60.9964 19.8277 59.8756 20.552 59.312C26.1972 54.9632 30.0259 53.5628 32.3984 53.2227C33.5825 53.053 34.4062 53.1469 34.918 53.2711C35.0382 53.3003 35.1417 53.3313 35.2291 53.3612C35.1552 53.5238 35.0572 53.7302 34.9326 53.9757C34.5891 54.6522 34.043 55.6251 33.2383 56.7952C31.6291 59.1351 28.9852 62.2645 24.8573 65.3901L24.8561 65.391C23.4682 66.4485 20.7617 67.8028 18.2706 68.7899C17.0299 69.2815 15.8656 69.6728 14.9683 69.8879C14.5172 69.996 14.1535 70.0547 13.8901 70.0652ZM7.84594 39.2642C7.8459 39.2641 7.84705 39.2646 7.84943 39.266C7.84716 39.2649 7.84599 39.2643 7.84594 39.2642ZM18.453 47.1468H18.4407C18.3986 47.1244 18.3672 47.1052 18.3444 47.0896L18.3442 47.0893L18.344 47.0889L18.3438 47.0885L18.3436 47.0881L18.3434 47.0877L18.3432 47.0873L18.343 47.0869L18.3428 47.0865L18.3426 47.0861L18.3424 47.0857L18.3422 47.0853L18.342 47.0849L18.3418 47.0844L18.3416 47.084L18.3414 47.0836L18.3412 47.0832L18.341 47.0828L18.3407 47.0824L18.3405 47.082L18.3403 47.0816L18.3401 47.0812L18.3399 47.0808L18.3397 47.0804L18.3395 47.08L18.3393 47.0796L18.3391 47.0792L18.3389 47.0788L18.3387 47.0784L18.3385 47.078L18.3383 47.0776L18.3381 47.0772L18.3379 47.0768L18.3377 47.0764L18.3375 47.076L18.3373 47.0756L18.3371 47.0752L18.3369 47.0748L18.3367 47.0744L18.3365 47.074L18.3363 47.0736L18.3361 47.0732L18.3359 47.0728L18.3357 47.0724L18.3355 47.072L18.3353 47.0716L18.3351 47.0712L18.3349 47.0708L18.3347 47.0704L18.3345 47.07L18.3343 47.0695L18.3341 47.0691L18.3339 47.0687L18.3337 47.0683L18.3335 47.0679L18.3333 47.0675L18.3331 47.0671L18.3329 47.0667L18.3327 47.0663L18.3325 47.0659L18.3323 47.0655L18.3321 47.0651L18.3319 47.0647L18.3317 47.0643L18.3315 47.0639L18.3313 47.0635L18.3311 47.0631L18.3309 47.0627L18.3307 47.0623L18.3305 47.0619L18.3303 47.0615L18.3301 47.0611L18.3299 47.0607L18.3297 47.0603L18.3295 47.0599L18.3293 47.0595L18.3291 47.0591L18.3289 47.0587L18.3287 47.0583L18.3285 47.0579L18.3283 47.0575L18.3281 47.0571L18.3279 47.0567L18.3277 47.0563L18.3275 47.0559L18.3273 47.0555L18.3271 47.0551L18.3269 47.0547L18.3267 47.0542L18.3265 47.0538L18.3263 47.0534L18.3261 47.053L18.3258 47.0526L18.3256 47.0522L18.3254 47.0518L18.3252 47.0514L18.325 47.051L18.3248 47.0506L18.3246 47.0502L18.3244 47.0498L18.3242 47.0494L18.324 47.049L18.3238 47.0486L18.3236 47.0482L18.3234 47.0478L18.3232 47.0474L18.323 47.047L18.3228 47.0466L18.3226 47.0462L18.3224 47.0458L18.3222 47.0454L18.322 47.045L18.3218 47.0446L18.3216 47.0442L18.3214 47.0438L18.3212 47.0434L18.321 47.043L18.3208 47.0426L18.3206 47.0422L18.3204 47.0418L18.3202 47.0414L18.32 47.041L18.3198 47.0406L18.3196 47.0402L18.3194 47.0398L18.3192 47.0394L18.319 47.0389L18.3188 47.0385L18.3186 47.0381L18.3184 47.0377L18.3182 47.0373L18.318 47.0369L18.3178 47.0365L18.3176 47.0361L18.3174 47.0357L18.3172 47.0353L18.317 47.0349L18.3168 47.0345L18.3166 47.0341L18.3164 47.0337L18.3162 47.0333L18.316 47.0329L18.3158 47.0325L18.3156 47.0321L18.3154 47.0317L18.3152 47.0313L18.315 47.0309L18.3148 47.0305L18.3146 47.0301L18.3144 47.0297L18.3142 47.0293L18.314 47.0289L18.3138 47.0285L18.3136 47.0281L18.3134 47.0277L18.3132 47.0273L18.313 47.0269L18.3128 47.0265L18.3126 47.0261L18.3124 47.0257L18.3122 47.0253L18.312 47.0249L18.3118 47.0245L18.3116 47.0241L18.3114 47.0236L18.3112 47.0232L18.311 47.0228L18.3108 47.0224L18.3105 47.022L18.3103 47.0216L18.3101 47.0212L18.3099 47.0208L18.3097 47.0204L18.3095 47.02L18.3093 47.0196L18.3091 47.0192L18.3089 47.0188L18.3087 47.0184L18.3085 47.018L18.3083 47.0176L18.3081 47.0172L18.3079 47.0168L18.3077 47.0164L18.3075 47.016L18.3073 47.0156L18.3071 47.0152L18.3069 47.0148L18.3067 47.0144L18.3065 47.014L18.3063 47.0136L18.3061 47.0132L18.3059 47.0128L18.3057 47.0124L18.3055 47.012L18.3053 47.0116L18.3051 47.0112L18.3049 47.0108L18.3047 47.0104L18.3045 47.01L18.3043 47.0096L18.3041 47.0092L18.3039 47.0088L18.3037 47.0083L18.3035 47.0079L18.3033 47.0075L18.3031 47.0071L18.3029 47.0067L18.3027 47.0063L18.3025 47.0059L18.3023 47.0055L18.3021 47.0051L18.3019 47.0047L18.3017 47.0043L18.3015 47.0039L18.3013 47.0035L18.3011 47.0031L18.3009 47.0027L18.3007 47.0023L18.3005 47.0019L18.3003 47.0015L18.3001 47.0011L18.2999 47.0007L18.2997 47.0003L18.2995 46.9999L18.2993 46.9995L18.2991 46.9991L18.2989 46.9987L18.2987 46.9983L18.2985 46.9979L18.2983 46.9975L18.2981 46.9971L18.2979 46.9967L18.2977 46.9963L18.2975 46.9959L18.2973 46.9955L18.2971 46.9951L18.2969 46.9947L18.2967 46.9943L18.2965 46.9939L18.2963 46.9935L18.2961 46.993L18.2959 46.9926L18.2957 46.9922L18.2955 46.9918L18.2952 46.9914L18.295 46.991L18.2948 46.9906L18.2946 46.9902L18.2944 46.9898L18.2942 46.9894L18.294 46.989L18.2938 46.9886L18.2936 46.9882L18.2934 46.9878L18.2932 46.9874L18.293 46.987L18.2928 46.9866L18.2926 46.9862L18.2924 46.9858L18.2922 46.9854L18.292 46.985L18.2918 46.9846L18.2916 46.9842L18.2914 46.9838L18.2912 46.9834L18.291 46.983L18.2908 46.9826L18.2906 46.9822L18.2904 46.9818L18.2902 46.9814L18.29 46.981L18.2898 46.9806L18.2896 46.9802L18.2894 46.9798L18.2892 46.9794L18.289 46.979L18.2888 46.9786L18.2886 46.9781L18.2884 46.9777L18.2882 46.9773L18.288 46.9769L18.2878 46.9765L18.258 46.917L18.2137 46.8673C17.21 45.7419 14.633 41.6104 15.556 29.0615C15.6882 27.346 16.5873 23.9721 17.6974 21.086C18.2512 19.6462 18.8449 18.3611 19.4029 17.4832C19.6841 17.0407 19.9373 16.7322 20.1495 16.5561C20.2541 16.4693 20.3307 16.43 20.3787 16.4144C20.386 16.412 20.3924 16.4103 20.3978 16.4091C20.399 16.4105 20.4001 16.412 20.4013 16.4136C20.4429 16.4685 20.4981 16.561 20.5632 16.7013C20.6927 16.9804 20.8324 17.3842 20.9754 17.8957C21.2603 18.9141 21.5402 20.2924 21.7792 21.7967C22.2585 24.8142 22.5605 28.2571 22.4269 30.2271L22.4269 30.2274C22.052 35.8166 20.9963 40.0318 19.981 42.8745L20.8055 43.3962C22.8509 41.3507 25.5147 39.304 26.9141 38.6523C33.0827 35.858 36.9786 35.4078 39.2953 35.6207C40.4521 35.7269 41.2186 35.9987 41.6837 36.2298C41.7923 36.2837 41.8848 36.3357 41.9625 36.3831C41.8652 36.5151 41.7399 36.6792 41.5852 36.871C41.1376 37.426 40.4436 38.2128 39.4677 39.1255C37.5163 40.9505 34.436 43.28 29.9394 45.2653L29.9377 45.266C28.5721 45.8748 26.1583 46.468 23.8246 46.8484C22.6642 47.0376 21.539 47.1715 20.5924 47.2288C19.6273 47.2872 18.9038 47.2616 18.5137 47.1623L18.453 47.1468ZM20.3684 16.3756C20.3684 16.3756 20.3689 16.376 20.3698 16.3768C20.3689 16.3761 20.3684 16.3756 20.3684 16.3756ZM42.289 36.6216L42.2883 36.621C42.2894 36.622 42.2896 36.6223 42.289 36.6216ZM28.5337 28.1171C28.5276 28.114 28.5225 28.1113 28.5183 28.109C28.5019 28.0795 28.4857 28.0369 28.4617 27.9406L28.4448 27.873L28.41 27.8127C27.7239 26.6194 26.1679 22.1855 30.0304 10.7684C30.5555 9.22601 32.2034 6.38009 33.9402 4.03738C34.8061 2.86936 35.6722 1.85661 36.4065 1.20696C36.7766 0.879585 37.0866 0.668513 37.3255 0.56654C37.4428 0.516444 37.5232 0.501374 37.5718 0.500092C37.585 0.499745 37.5953 0.500365 37.6034 0.501463C37.6047 0.504208 37.606 0.50716 37.6074 0.51033C37.633 0.568459 37.663 0.664536 37.6914 0.807686C37.7479 1.09269 37.7847 1.49506 37.7991 1.99838C37.8279 3.00044 37.7663 4.3316 37.6362 5.769C37.3752 8.65274 36.8466 11.88 36.2635 13.6459C34.9359 17.6628 33.4061 20.7202 32.0168 22.9906L32.7361 23.6569C34.5798 22.3253 36.4936 21.1891 37.6003 20.7651C43.9759 18.4472 47.9282 18.2034 50.2541 18.5075C51.4155 18.6593 52.1727 18.9479 52.6276 19.1844C52.7109 19.2277 52.7843 19.2694 52.8483 19.3083C52.7502 19.4158 52.6298 19.5439 52.4861 19.69C52.0034 20.1811 51.2591 20.8755 50.2238 21.6746C48.1538 23.2724 44.9187 25.2903 40.2817 26.9379L40.2806 26.9383C38.7104 27.5003 35.8243 27.9857 33.2338 28.208C31.9437 28.3187 30.7502 28.362 29.8519 28.3205C29.4004 28.2996 29.0425 28.258 28.7907 28.1997C28.6644 28.1705 28.582 28.1408 28.5337 28.1171ZM28.5047 28.1008C28.5034 28.0999 28.5029 28.0995 28.5029 28.0995C28.503 28.0995 28.5036 28.0999 28.5047 28.1008ZM40.8201 15.3317C40.8273 15.2735 40.8368 15.2098 40.8491 15.1408C40.9327 14.672 41.1496 13.9482 41.6979 13.0009C42.7964 11.1032 45.2277 8.30406 50.5799 4.87798L50.5807 4.87746C51.714 4.14892 54.3309 3.15974 56.7694 2.55864C57.9835 2.25935 59.1161 2.06587 59.968 2.0431C60.3971 2.03164 60.7215 2.06474 60.9395 2.13C61.0464 2.16198 61.11 2.19656 61.1448 2.22289C61.1516 2.22803 61.1572 2.23268 61.1616 2.23684C61.1509 2.28438 61.1264 2.35808 61.0792 2.4611C60.9789 2.67996 60.8053 2.96857 60.562 3.31579C60.078 4.0065 59.3618 4.86798 58.5403 5.76393C56.8913 7.56243 54.8803 9.43298 53.575 10.2923C49.7053 12.8211 46.3701 14.0887 44.0127 14.7244C42.8335 15.0423 41.8983 15.2023 41.2625 15.2828C41.0936 15.3042 40.9458 15.32 40.8201 15.3317ZM61.1678 2.19867C61.1678 2.19862 61.1678 2.19946 61.1677 2.20126C61.1677 2.1996 61.1677 2.19871 61.1678 2.19867Z" stroke="#E3E3E3"/>
</svg>
