<svg width="70" height="164" viewBox="0 0 70 164" fill="none" xmlns="http://www.w3.org/2000/svg">
<path d="M1.90844 162.848C9.20685 161.642 16.1959 156.953 20.8616 153.176L21.151 152.941L21.0095 152.597C20.5192 151.404 20.0018 149.043 19.6286 146.521C19.2566 144.006 19.0389 141.408 19.1222 139.757C19.4289 133.929 20.502 129.455 21.4943 126.444C21.9906 124.938 22.4667 123.798 22.8169 123.038C22.9341 122.783 23.0372 122.572 23.1222 122.403C23.1696 122.448 23.2208 122.499 23.275 122.557C23.6345 122.942 24.1358 123.637 24.6184 124.841C25.5857 127.255 26.4706 131.7 25.9923 139.732C25.9096 140.9 25.4918 142.895 24.8891 145.028C24.2876 147.156 23.515 149.377 22.7418 150.99L23.5293 151.576C25.7957 149.513 29.8384 146.419 36.0689 143.729C37.8518 142.962 41.0435 142.171 43.8857 141.701C45.303 141.467 46.6112 141.316 47.5942 141.286C48.0884 141.271 48.4797 141.287 48.7542 141.331C48.8766 141.35 48.9602 141.373 49.0128 141.393C49.0155 141.453 49.0024 141.568 48.9164 141.768C48.7908 142.06 48.552 142.43 48.2032 142.865C47.5095 143.728 46.4534 144.756 45.252 145.789C42.8408 147.863 39.9478 149.869 38.4184 150.543L38.4181 150.543C27.2684 155.468 22.9853 154.162 21.7799 153.515L21.4661 153.346L21.2044 153.588C18.9987 155.623 16.2377 157.956 13.3569 159.856C10.4659 161.762 7.50605 163.195 4.89377 163.491C4.49741 163.532 3.52238 163.448 1.90844 162.848ZM38.2676 133.584L39.1729 133.962C40.8993 131.389 44.1281 127.341 49.544 123.117C51.1142 121.898 54.0545 120.267 56.7185 119.036C58.0472 118.422 59.2879 117.916 60.2367 117.613C60.7137 117.461 61.0977 117.367 61.3734 117.331C61.4811 117.317 61.5597 117.314 61.6133 117.316C61.6257 117.369 61.6351 117.473 61.6045 117.659C61.5538 117.967 61.4111 118.381 61.1754 118.889C60.7068 119.897 59.9221 121.164 58.9951 122.477C57.1352 125.11 54.78 127.821 53.4278 128.893C47.1896 133.832 43.0835 135.605 40.5776 136.163C39.3277 136.441 38.4799 136.415 37.9636 136.333C37.705 136.292 37.5274 136.237 37.4218 136.196C37.3689 136.176 37.3337 136.16 37.3152 136.15C37.3083 136.147 37.3037 136.144 37.3013 136.143C37.2118 136.086 37.0539 135.932 36.8342 135.639C36.6213 135.355 36.3796 134.979 36.1182 134.529C35.5961 133.629 35.0134 132.461 34.4465 131.198C33.3092 128.662 32.2619 125.799 31.8948 123.998C30.771 118.378 30.7382 113.838 30.9841 110.71C31.107 109.145 31.2996 107.934 31.4604 107.118C31.517 106.83 31.5696 106.592 31.6139 106.404C31.6765 106.436 31.7455 106.473 31.8203 106.518C32.2637 106.783 32.9216 107.302 33.6865 108.31C35.2204 110.33 37.175 114.302 38.6789 122.06C38.8916 123.19 38.9706 125.181 38.9022 127.358C38.834 129.528 38.6209 131.834 38.2676 133.584ZM61.681 117.324C61.6807 117.324 61.6791 117.324 61.6767 117.323C61.6802 117.324 61.6815 117.324 61.681 117.324ZM36.0567 88.9251C36.1331 88.9385 36.2195 88.9567 36.3155 88.9816C36.8159 89.1113 37.5876 89.4229 38.5825 90.1676C40.5778 91.6609 43.4633 94.8907 46.8287 101.843C47.3175 102.854 47.8832 104.731 48.3452 106.827C48.8054 108.915 49.1515 111.168 49.2186 112.915L50.1893 113.063C51.2378 110.121 53.412 105.393 57.7405 99.837L57.7405 99.837C58.9777 98.2487 61.4694 95.8885 63.7919 93.9851C64.9503 93.0358 66.0506 92.2134 66.915 91.6655C67.3495 91.3901 67.7078 91.1947 67.975 91.0853C68.0849 91.0403 68.1667 91.0152 68.2234 91.0029C68.2466 91.0491 68.2782 91.1417 68.2926 91.3186C68.3177 91.6246 68.2785 92.0582 68.1701 92.6065C67.9547 93.6958 67.4914 95.1166 66.9008 96.6196C65.7174 99.6315 64.0716 102.853 63.0294 104.244C58.2097 110.516 54.6617 113.343 52.3322 114.603C51.1698 115.232 50.3146 115.469 49.7575 115.551C49.2803 115.622 49.0105 115.582 48.9303 115.568C48.8431 115.547 48.6606 115.46 48.3738 115.25C48.098 115.048 47.77 114.765 47.4025 114.414C46.6685 113.712 45.8066 112.767 44.9356 111.721C43.1875 109.622 41.4474 107.175 40.6488 105.561L40.2007 105.783L40.6488 105.561C38.164 100.541 37.0181 96.2409 36.4929 93.2039C36.2303 91.6853 36.1228 90.4823 36.0808 89.6628C36.0656 89.3652 36.0589 89.1182 36.0567 88.9251ZM68.2907 90.9937C68.2904 90.9938 68.2888 90.9938 68.286 90.9936C68.2895 90.9935 68.291 90.9936 68.2907 90.9937ZM54.979 89.8863L55.9528 89.7965C56.3253 86.6811 57.3437 81.714 60.1388 75.4763L60.1399 75.4737C60.959 73.6183 62.8309 70.6903 64.6494 68.2428C65.5562 67.0223 66.4376 65.9378 67.1539 65.1781C67.5138 64.7964 67.8194 64.5103 68.057 64.3306C68.161 64.2519 68.2403 64.2027 68.2961 64.1747C68.3274 64.2098 68.3768 64.2841 68.431 64.4373C68.5294 64.7151 68.5973 65.1329 68.6251 65.6818C68.6802 66.7715 68.572 68.246 68.3568 69.836C67.9251 73.0241 67.0823 76.5432 66.3715 78.1632C60.469 91.6115 55.9629 92.7098 55.3496 92.8106H55.3495H55.3494H55.3493H55.3492H55.3491H55.349H55.3489H55.3487H55.3486H55.3485H55.3484H55.3483H55.3482H55.3481H55.348H55.3479H55.3478H55.3477H55.3476H55.3475H55.3474H55.3473H55.3472H55.3471H55.347H55.3469H55.3468H55.3466H55.3465H55.3464H55.3463H55.3462H55.3461H55.346H55.3459H55.3458H55.3457H55.3456H55.3455H55.3453H55.3452H55.3451H55.345H55.3449H55.3448H55.3447H55.3446H55.3445H55.3444H55.3442H55.3441H55.344H55.3439H55.3438H55.3437H55.3436H55.3434H55.3433H55.3432H55.3431H55.343H55.3429H55.3428H55.3426H55.3425H55.3424H55.3423H55.3422H55.3421H55.3419H55.3418H55.3417H55.3416H55.3415H55.3414H55.3412H55.3411H55.341H55.3409H55.3407H55.3406H55.3405H55.3404H55.3403H55.3401H55.34H55.3399H55.3398H55.3396H55.3395H55.3394H55.3393H55.3391H55.339H55.3389H55.3388H55.3386H55.3385H55.3384H55.3382H55.3381H55.338H55.3379H55.3377H55.3376H55.3375H55.3373H55.3372H55.3371H55.3369H55.3368H55.3367H55.3365H55.3364H55.3363H55.3361H55.336H55.3359H55.3357H55.3356H55.3354H55.3353H55.3352H55.335H55.3349H55.3347H55.3346H55.3345H55.3343H55.3342H55.334H55.3339H55.3337H55.3336H55.3335H55.3333H55.3332H55.333H55.3329H55.3327H55.3326H55.3324H55.3323H55.3321H55.332H55.3318H55.3317H55.3315H55.3314H55.3312H55.3311H55.3309H55.3307H55.3306H55.3304H55.3303H55.3301H55.33H55.3298H55.3296H55.3295H55.3293H55.3292H55.329H55.3288H55.3287H55.3285H55.3283H55.3282H55.328H55.3278H55.3277H55.3275H55.3273H55.3272H55.327H55.3268H55.3267H55.3265H55.3263H55.3261H55.326H55.3258H55.3256H55.3255H55.3253H55.3251H55.3249H55.3247H55.3246H55.3244H55.3242H55.324H55.3238H55.3237H55.3235H55.3233H55.3231H55.3229H55.3227H55.3226H55.3224H55.3222H55.322H55.3218H55.3216H55.3214H55.3212H55.321H55.3208H55.3206H55.3205H55.3203H55.3201H55.3199H55.3197H55.3195H55.3193H55.3191H55.3189H55.3187H55.3185H55.3183H55.3181H55.3179H55.3177H55.3175H55.3173H55.3171H55.3169H55.3167H55.3165H55.3163H55.3161H55.3159H55.3157H55.3156H55.3154H55.3152H55.315H55.3148H55.3146H55.3144H55.3143H55.3141H55.3139H55.3137H55.3135H55.3134H55.3132H55.313H55.3128H55.3126H55.3125H55.3123H55.3121H55.3119H55.3118H55.3116H55.3114H55.3113H55.3111H55.3109H55.3107H55.3106H55.3104H55.3102H55.3101H55.3099H55.3097H55.3096H55.3094H55.3093H55.3091H55.3089H55.3088H55.3086H55.3085H55.3083H55.3081H55.308H55.3078H55.3077H55.3075H55.3074H55.3072H55.3071H55.3069H55.3068H55.3066H55.3065H55.3063H55.3062H55.306H55.3059H55.3057H55.3056H55.3054H55.3053H55.3051H55.305H55.3049H55.3047H55.3046H55.3044H55.3043H55.3042H55.304H55.3039H55.3037H55.3036H55.3035H55.3033H55.3032H55.3031H55.3029H55.3028H55.3027H55.3025H55.3024H55.3023H55.3022H55.302H55.3019H55.3018H55.3016H55.3015H55.3014H55.3013H55.3011H55.301H55.3009H55.3008H55.3006H55.3005H55.3004H55.3003H55.3002H55.3H55.2999H55.2998H55.2997H55.2996H55.2995H55.2993H55.2992H55.2991H55.299H55.2989H55.2988H55.2987H55.2986H55.2984H55.2983H55.2982H55.2981H55.298H55.2979H55.2978H55.2977H55.2976H55.2975H55.2974H55.2973H55.2972H55.2971H55.297H55.2969H55.2967H55.2966H55.2965H55.2964H55.2963H55.2962H55.2962H55.2961C55.1637 92.8034 54.9382 92.7499 54.6121 92.6243C54.2892 92.4999 53.903 92.319 53.4685 92.0899C52.6003 91.6319 51.5678 90.9962 50.5105 90.2772C48.3868 88.8329 46.2204 87.0913 45.1112 85.8331L45.1105 85.8324C41.5745 81.8373 39.4966 78.1452 38.304 75.4597C37.7076 74.1168 37.3325 73.0255 37.1073 72.2738C37.0241 71.996 36.9613 71.7647 36.9154 71.5842C37.0014 71.5726 37.1016 71.563 37.2161 71.558C37.7323 71.5353 38.5497 71.605 39.6781 72.0139C41.9403 72.8335 45.455 75.0175 50.267 80.5458C50.9316 81.3243 51.8543 82.8349 52.7474 84.587C53.6368 86.3318 54.4746 88.272 54.979 89.8863ZM68.3561 64.1498C68.3559 64.1499 68.3545 64.1503 68.352 64.1508C68.3551 64.1499 68.3564 64.1497 68.3561 64.1498ZM61.1795 39.1777C61.1795 39.1777 61.1801 39.1777 61.1811 39.1779L61.1795 39.1777ZM61.0089 39.4208C61.0974 39.3106 61.1673 39.2386 61.2178 39.196C61.2544 39.2202 61.3169 39.2758 61.4031 39.4024C61.5633 39.6379 61.7292 40.0153 61.8887 40.5302C62.2052 41.5518 62.4576 42.9837 62.6345 44.5543C62.9892 47.7036 63.026 51.2731 62.7289 52.9901C60.3685 66.467 56.5643 69.3464 55.6191 69.8905L55.3686 70.0348V70.0391C55.3281 70.0414 55.2797 70.0421 55.2226 70.0402C54.9642 70.0319 54.6045 69.9749 54.1558 69.8676C53.2634 69.6543 52.1017 69.2622 50.8609 68.7684C48.371 67.7776 45.6546 66.4145 44.2475 65.3553C40.1197 62.2297 37.4758 59.1004 35.8667 56.7606C35.062 55.5904 34.5159 54.6175 34.1724 53.941C34.0477 53.6955 33.9498 53.4891 33.8759 53.3265C33.9633 53.2966 34.0668 53.2656 34.187 53.2364C34.6988 53.1122 35.5225 53.0183 36.7066 53.188C39.0788 53.5281 42.9069 54.9282 48.551 59.2758C49.2616 59.8419 50.3057 60.9644 51.3852 62.3128C52.4604 63.6557 53.5446 65.1898 54.3366 66.5547L55.2661 66.2492C54.9275 63.1676 54.8234 58.4057 55.9483 52.1677L55.9485 52.1665C56.2994 50.195 57.4245 46.903 58.6143 44.0783C59.2075 42.6699 59.809 41.3964 60.3274 40.4769C60.5878 40.015 60.8186 39.6581 61.0089 39.4208ZM55.5145 70.0159C55.5144 70.016 55.5138 70.0163 55.5124 70.0168C55.5138 70.0161 55.5145 70.0159 55.5145 70.0159ZM39.1672 45.2659L39.167 45.2658C34.6695 43.2631 31.5886 40.9332 29.6368 39.1122C28.6607 38.2014 27.9667 37.4176 27.519 36.8652C27.3648 36.6748 27.2398 36.512 27.1426 36.3809C27.2191 36.3339 27.3102 36.2825 27.417 36.2292C27.8785 35.9984 28.6404 35.7268 29.7926 35.6206C32.1006 35.4078 35.9884 35.8579 42.1584 38.653C43.5883 39.303 46.252 41.3489 48.2622 43.3931L49.0896 42.8744C48.0743 40.0317 47.0186 35.8165 46.6437 30.2273L46.6437 30.2273C46.5101 28.2398 46.8121 24.7967 47.2914 21.7838C47.5304 20.2817 47.8103 18.9068 48.0951 17.8911C48.2381 17.381 48.3778 16.9784 48.5072 16.7003C48.5723 16.5605 48.6274 16.4683 48.6689 16.4136C48.6702 16.412 48.6714 16.4104 48.6725 16.4089C48.6781 16.4102 48.6845 16.4119 48.6919 16.4143C48.7399 16.4299 48.8165 16.4692 48.9211 16.556C49.1333 16.7321 49.3865 17.0406 49.6677 17.4831C50.2257 18.361 50.8195 19.6461 51.3732 21.0859C52.4832 23.9718 53.3823 27.3455 53.5145 29.0611C54.4377 41.6102 51.8606 45.7418 50.8569 46.8673L50.73 47.0095V47.1178C50.7163 47.1239 50.7006 47.1309 50.6839 47.1386L50.5913 47.1622C50.2011 47.2615 49.4776 47.2871 48.5125 47.2287C47.566 47.1715 46.4408 47.0375 45.2804 46.8483C42.9466 46.4679 40.5328 45.8747 39.1672 45.2659ZM26.8182 36.6193L26.8176 36.6198C26.817 36.6205 26.8172 36.6203 26.8182 36.6193ZM48.7018 16.3758C48.7018 16.3758 48.7013 16.3762 48.7004 16.377L48.7018 16.3758ZM36.3309 23.6542L37.0519 22.9876C35.6634 20.7524 34.0999 17.6615 32.7727 13.6457L32.7714 13.6418C32.1724 11.8783 31.6439 8.66199 31.3872 5.78246C31.2593 4.34758 31.2008 3.01763 31.2322 2.01406C31.2479 1.51009 31.2859 1.10588 31.3433 0.818042C31.3721 0.673571 31.4026 0.575086 31.4291 0.514166C31.4312 0.509452 31.4331 0.50517 31.4349 0.501295C31.4425 0.50045 31.4518 0.500022 31.4634 0.500348C31.5119 0.501717 31.5922 0.516932 31.7096 0.567387C31.9486 0.670081 32.2587 0.882284 32.6289 1.21105C33.3635 1.86344 34.2297 2.87951 35.0957 4.04982C36.832 6.39619 38.48 9.24164 39.0057 10.7683C42.8661 22.1791 41.2815 26.6207 40.6215 27.8208L40.5596 27.9334V28.0618C40.5596 28.0875 40.5566 28.0973 40.556 28.0994C40.5556 28.1006 40.5546 28.1036 40.5518 28.1092C40.5477 28.1114 40.5427 28.114 40.5368 28.117C40.4885 28.1407 40.4061 28.1704 40.2798 28.1996C40.028 28.2579 39.6701 28.2995 39.2187 28.3204C38.3204 28.3619 37.1268 28.3186 35.8367 28.2079C33.2462 27.9856 30.3602 27.5002 28.7899 26.9382L28.7888 26.9378C24.1519 25.2903 20.9167 23.2724 18.8467 21.6745C17.8115 20.8754 17.0672 20.181 16.5844 19.6899C16.4408 19.5438 16.3203 19.4157 16.2222 19.3082C16.2863 19.2693 16.3597 19.2276 16.4429 19.1843C16.8978 18.9478 17.6551 18.6592 18.8165 18.5074C21.1428 18.2032 25.0963 18.4472 31.4742 20.7664L31.4742 20.7665L31.4829 20.7695C32.6077 21.1552 34.5138 22.317 36.3309 23.6542ZM31.4519 0.469909C31.4519 0.46992 31.4517 0.470246 31.4512 0.470845L31.4519 0.469909ZM15.5292 10.2917L15.5292 10.2917L15.5244 10.2886C14.2068 9.44862 12.198 7.58109 10.5527 5.77765C9.73368 4.87995 9.02069 4.01546 8.53941 3.3223C8.29749 2.97386 8.12492 2.68405 8.02526 2.46428C7.97787 2.35976 7.95348 2.28513 7.94297 2.23716C7.94752 2.2329 7.95317 2.22812 7.96019 2.22281C7.99505 2.19649 8.05865 2.1619 8.16551 2.12992C8.38352 2.06466 8.70797 2.03156 9.13701 2.04303C9.9889 2.06579 11.1215 2.25927 12.3357 2.55856C14.7742 3.15967 17.391 4.14884 18.5243 4.87738L18.5251 4.8779C23.8773 8.30398 26.3086 11.1031 27.4071 13.0008C27.9554 13.9481 28.1724 14.6719 28.256 15.1407C28.2683 15.2097 28.2777 15.2734 28.2849 15.3316C28.1593 15.3199 28.0115 15.3042 27.8425 15.2828C27.2067 15.2022 26.2715 15.0422 25.0924 14.7243C22.7348 14.0886 19.3993 12.8208 15.5292 10.2917ZM7.93718 2.19969C7.93721 2.19971 7.93727 2.20055 7.93725 2.20216C7.93714 2.20047 7.93715 2.19967 7.93718 2.19969Z" stroke="#E3E3E3"/>
</svg>
